<svg xmlns="http://www.w3.org/2000/svg" viewBox="0 0 973.09 940.59"><defs><style>.cls-1{fill:none;}.cls-2{fill:#28a2b1;}.cls-3{fill:#86298b;}</style></defs><title>Brain</title><g id="BG"><rect class="cls-1" width="973.09" height="940.59"/></g><g id="Brain"><path class="cls-2" d="M566,135.78a28.24,28.24,0,0,1,6.16.69,29.91,29.91,0,0,1,7.56,2.86c6.5,4.4,9.73,13,3.83,21.13-.29.39-.51.75-.71,1.07-12.47,18.83-8,40.1,3.08,62.77a43.49,43.49,0,0,0,2.85,5.56c-1-1.87-1.93-3.72-2.85-5.56-10.76-24.83-1.89-59.14,13.21-65.5a45.75,45.75,0,0,1,22.39-.55c25.13,5.66,43.31,31.15,45.89,61.05h0c1.28,16.24-2.56,30.93-8.72,43.65a3.35,3.35,0,0,1-3.17,1.71c-8.33,0-28.17-18.67-35.37-49.78.85,24.38,9.15,43.71,18,54.05h0c7.9,8.55,7.95,15.13-.3,23.74-1.49,1.58-3,3.06-4.4,4.47-23.81,23.11-25.39,60.28-19.49,78,.57-37.54,9.87-57.33,34-73.52,16.65-11.16,29.56-34.85,32.21-62.55h0c1.79-14.95,11.4-19.8,18.95-19.8a15.64,15.64,0,0,1,5.34.89c19.27,8.23,33.44,28,38.26,51.68,1.69,19.62-2.17,29.75-14.27,29.75-.32,0-.67,0-1,0h0a56.82,56.82,0,0,0-9-.69c-10,0-19.4,2.51-25.22,6.1h0a88.86,88.86,0,0,1,10.06.57c7.25,2.37,6.7,11.73,3.82,23.78-6.93,23.89-19.54,48.95-46,48.95-1.17,0-2.38-.05-3.59-.16a56.3,56.3,0,0,0,16.33,2.61c24.6,0,37.73-19.93,44.69-39.05a18.76,18.76,0,0,0,1.12-3.22h0q.95-2.85,1.7-5.6c2.79-7.9,6.42-12.41,11.24-12.41a11.62,11.62,0,0,1,6.15,2.11c23.94,20.9,37.27,57.7,31.67,95.69-3,20.38-11,38.06-22.18,51.49-3.77,3.5-7.27,5-10.64,5-7.94,0-15.27-8.43-24.29-19.71-.32-.43-.71-.91-1.18-1.46a1,1,0,0,1-.1-.15c-11.51-13.56,22.32-13.82,33.1-34.41s-6.85-47.4-6.85-47.4c4.78,14.52,7.59,33-4.75,44.61-11.05,10.43-25.23,21.69-37.39,21.69a17.63,17.63,0,0,1-4.24-.49c-1-.24-1.88-.43-2.68-.57a41.83,41.83,0,0,0-10.39-1.29c-12.59,0-25.87,5.4-36.07,16.17-12.63,13.34-25.2,22.94-39.35,22.94-7.81,0-16.11-2.92-25.19-9.74,10.11,16.7,19.47,22.73,28.29,22.73,12.73,0,24.36-12.51,35.59-23.7a.2.2,0,0,0,.07-.06c4.23-4.18,8.58-6.61,12.26-6.61,4.47,0,7.93,3.64,8.89,12.21,1.72,15.57,11.39,54,42.58,54-24.89-4.15-44.1-75.12-30.64-77.35,22.31.86,42.26,21.67,51.14,42.16h0a90,90,0,0,1,6.06,48.39c-4.34,29.37-22,51.58-43.88,58.84a9.56,9.56,0,0,1-1.82.17c-16.76,0-18.85-46.93-11.6-54.31-21.8,5.31-9.37,40.3-6,56.52a74.92,74.92,0,0,1-.48,18c-4.33,29.44-25.09,50.06-48.47,50.06a40,40,0,0,1-8.9-1,44.35,44.35,0,0,1-19-9.6C582.23,648.2,585.22,634.65,605,628c8.31-2.79,13.89-10.48,18-20.46h0c2.49-5.12,5.36-7.18,8.22-7.18,7.47,0,15.08,13.84,16.87,23.68,2.91-11.66-4.65-29.42-10.37-32.19s-7.68-8.14-5.44-19.6c1.26-6.58,2.48-13,3.81-19,6.25-28.08,9.74-34.1,20.91-39.4a15.3,15.3,0,0,0-4.41-.7c-21,0-24,51.94-32.11,77.89-8.7,27.66-30.34,29.81-47.56,33.6h0c-1.78,0-4.55,67.92-15.84,67.92a4.07,4.07,0,0,1-.47,0c-27-4.57-18.76-91.06-22.48-124.58-1.41-12.67.36-38.6,7.13-47.05h0c3-2.65,7-3.93,11.6-3.93,15.21,0,35.61,14.22,35.63,38.72,10.55-20.6-14.14-51.43-32.34-51.43h-1.67c-16.7,0-14.92-4.84-17.47-10.6-5.08-13.5-.75-30.54-1.76-46.52-1.17-19.21-4.32-35.59,7.49-46.5a10.54,10.54,0,0,1,7.39-2.93c10.54,0,24,13.39,36.34,19.41,6.08,3,12.32,4.83,18.68,4.83,9.78,0,19.86-4.37,30.16-15.75-5.77,4-12.95,5.68-20.58,5.68-20.9,0-45.21-12.52-53.12-23.68h0c-25.36-26-29.76-45.83-25.9-72,2.85-19.37,10.63-38.8,31.88-45.78h0c5.71-2.56,13.85-6.28,22.27-6.28s16.79,3.59,23.49,15.36c-2.79-17.86-14.66-24-26.25-25.48a9.81,9.81,0,0,0-1,0c-5.36,0-18,3.67-28.3,3.67-6.89,0-12.75-1.65-14.63-7.18-2-8.78,11.41-22.79,12.38-32.36-16-6.39-26.17-26.63-23.08-47.68,3-20.36,17.37-34.63,33.53-34.63m46.44,386.48c0-.4,0-.81,0-1.23l-.59.55c.18.22.37.45.54.68M680.09,239h0m0,0h0M566,108.17h0c-30.28,0-55.86,24.48-60.84,58.21-3.3,22.45,3.15,44.41,16.2,59.87-4.21,8.41-7.82,18.71-5.09,30.44a26,26,0,0,0,.75,2.65,38,38,0,0,0,6.39,11.53c-6.89,10.07-12.4,23.48-15,41.29-4,27.12-.09,49,13.36,70.39C504,400.82,505.85,424.48,507.2,442c.18,2.24.34,4.55.49,6.88a130.36,130.36,0,0,1-.31,14.37c-.7,12.23-1.5,26.11,3.77,40.17.15.38.29.77.46,1.14.05.18.11.35.16.53a47,47,0,0,0,2.82,6.75c-3.58,7.24-6,16.39-7.38,27.7a144.78,144.78,0,0,0-.53,31.5c.81,7.33,1,19.13,1.15,31.62.26,20.12.56,42.93,3.59,62.22,1.94,12.39,4.88,22.27,8.94,30.19,9.48,18.46,23.9,23.42,31.64,24.71a28.94,28.94,0,0,0,5.07.44c6.36,0,22.06-2.2,30.71-22.57a77.88,77.88,0,0,0,3-8.69,70.47,70.47,0,0,0,14.43,5,68.6,68.6,0,0,0,15,1.67c36.93,0,68.34-29.87,75.42-71.34.53-.15,1.07-.3,1.6-.49,32.79-10.86,56.74-41.9,62.5-81A118.6,118.6,0,0,0,758,498.64a50.6,50.6,0,0,0,9-6.69,25.35,25.35,0,0,0,2.47-2.61c14.84-17.88,24.61-40.38,28.25-65.1,6.36-43.08-6.68-86-34.23-114.26,7.93-13.08,7.72-29,6.7-40.56a29.09,29.09,0,0,0-.44-3.09c-6.74-33.14-27.08-59.89-54.46-71.58-.42-.19-.85-.36-1.28-.52A43,43,0,0,0,699,191.64a44.19,44.19,0,0,0-9,.93c-9.93-31.21-33.16-54.65-62.48-61.26a73.64,73.64,0,0,0-16.16-1.8c-1.19,0-2.36,0-3.54.09a44.11,44.11,0,0,0-12.65-13.11A25.78,25.78,0,0,0,592.8,115a57.2,57.2,0,0,0-14.58-5.47A55.29,55.29,0,0,0,566,108.17Z"/><path class="cls-3" d="M483,511.8a45.92,45.92,0,0,0,2.81-6.75c.05-.18.11-.35.17-.53.16-.37.31-.76.46-1.14,5.27-14.06,4.47-27.94,3.77-40.17a132.88,132.88,0,0,1-.31-14.37c.14-2.33.31-4.64.49-6.88,1.35-17.48,3.16-41.14-14.55-59.41,13.44-21.36,17.33-43.27,13.35-70.39-2.62-17.81-8.12-31.22-15-41.29a37.83,37.83,0,0,0,6.37-11.53c.29-.86.55-1.75.76-2.65,2.73-11.73-.87-22-5.09-30.44,13.05-15.46,19.5-37.42,16.2-59.87-5-33.73-30.56-58.21-60.85-58.21a55.27,55.27,0,0,0-12.21,1.37A57.13,57.13,0,0,0,404.81,115a27,27,0,0,0-2.42,1.48,44.11,44.11,0,0,0-12.65,13.11c-1.17-.06-2.36-.09-3.55-.09a73.42,73.42,0,0,0-16.15,1.8c-29.33,6.61-52.55,30.05-62.51,61.26a43.8,43.8,0,0,0-9-.93,42.89,42.89,0,0,0-14.89,2.59c-.45.16-.86.33-1.28.52-27.39,11.69-47.73,38.44-54.45,71.58a24.76,24.76,0,0,0-.46,3.09c-1,11.53-1.23,27.48,6.7,40.56-27.55,28.29-40.59,71.18-34.22,114.26,3.63,24.72,13.39,47.22,28.24,65.09a25.6,25.6,0,0,0,2.48,2.62,50.92,50.92,0,0,0,8.94,6.69,119,119,0,0,0-1.71,44.05c5.76,39.12,29.73,70.16,62.52,81,.52.19,1.05.34,1.58.49,7.09,41.47,38.49,71.34,75.42,71.34a68.83,68.83,0,0,0,15-1.67,70.68,70.68,0,0,0,14.43-5,72.17,72.17,0,0,0,3,8.69c8.65,20.37,24.33,22.57,30.69,22.57a28.58,28.58,0,0,0,5.06-.44c7.75-1.29,22.17-6.25,31.66-24.71,4.06-7.92,7-17.8,8.93-30.19,3.05-19.29,3.35-42.1,3.61-62.22.17-12.49.32-24.29,1.13-31.62a144.74,144.74,0,0,0-.52-31.5C489,528.19,486.6,519,483,511.8ZM463.87,568c-.17,1.54-.29,3.33-.42,5.09H407a28.91,28.91,0,1,0,0,22.09h55.68c0,2.35-.08,4.69-.11,7.09-.26,19.22-.55,41-3.27,58.37-1.48,9.34-3.58,16.73-6.27,22-3.85,7.51-8.6,9.74-11.92,10.29l-.56.07c-.76,0-3.08,0-5.61-6a47.88,47.88,0,0,1-1.91-5.54l-8.81-30.8-29,13.64a42.88,42.88,0,0,1-8.83,3,41.24,41.24,0,0,1-9,1c-23.32,0-43.75-20.48-48.56-48.69l-2.89-17-14.9-4.19V498h59.6a28.91,28.91,0,1,0,0-22.09h-55.2c-28.26-.19-26.5,17.41-26.5,42v68.06c-12.51-11.15-21.24-27.67-24.11-47.17a90.92,90.92,0,0,1,1.3-33.93l4.55-19.63-17.43-10.09a23.28,23.28,0,0,1-4.11-3.11c-11.67-14-19.38-31.91-22.28-51.69-.19-1.3-.2-2.59-.36-3.89h14.57c4,15,14.24,23.65,28.42,23.65A28.91,28.91,0,0,0,298,416.38H463.14l.44,2.2c.66,6.06.3,13.06-.32,21.28-.19,2.29-.36,4.73-.53,7.2a150.63,150.63,0,0,0,.29,17.29c.63,10.9,1.2,20.8-2,29.46l-.4.94-.4,1.15-.4,1.25.21-.67a19.65,19.65,0,0,1-1.14,2.8l-6.32,12.22,6.07,12.33c1.49,3,3.53,8.77,4.77,19A118,118,0,0,1,463.87,568Zm-8.42-359.29-11.61,13.73,2.36,4.7H407a28.91,28.91,0,1,0,0,22.09h48a9.71,9.71,0,0,1-.17,1.31,10.37,10.37,0,0,1-1.75,3.18l-12.82,15.78,11.48,16.77c5.19,7.59,8.73,17.65,10.53,29.88,3.08,21,.26,36.48-9.45,51.91l-11.4,18.11,14.9,15.37a23.73,23.73,0,0,1,3.3,4.38H298a28.9,28.9,0,0,0-56.85,0H225.7c-.83-29.54,9.16-57.54,28-76.9l14.7-15.1-10.91-18c-4.33-7.17-3.23-19.89-2.85-24.07,4.57-22.59,17.3-40.8,34.35-49.88v82.51c0,24.56-1.76,42.16,26.5,42h55.2a28.9,28.9,0,1,0,0-22.1h-59.6V233.68L311,221.09l15,3.1,7.46-23.35c7.18-22.51,23.07-38.57,42.53-43a46,46,0,0,1,10.16-1.13c.73,0,1.44,0,2.15,0l16,.83,8.5-13.57a16.84,16.84,0,0,1,4.8-5,29.65,29.65,0,0,1,7.76-2.94,28,28,0,0,1,6.21-.7c16.66,0,30.91,14.69,33.89,34.94C467.58,184.44,463.82,198.77,455.45,208.68Z"/></g></svg>